<svg width="52" height="42" viewBox="0 0 52 42" fill="none" xmlns="http://www.w3.org/2000/svg">
<path d="M6.05819 41.3424C4.66027 41.3424 3.46399 40.8451 2.46935 39.8505C1.47471 38.8559 0.976548 37.6587 0.974854 36.2591V5.75911C0.974854 4.3612 1.47302 3.16492 2.46935 2.17028C3.46569 1.17564 4.66196 0.677476 6.05819 0.675781H46.7249C48.1228 0.675781 49.3199 1.17395 50.3162 2.17028C51.3126 3.16661 51.8099 4.36289 51.8082 5.75911V36.2591C51.8082 37.657 51.3109 38.8542 50.3162 39.8505C49.3216 40.8468 48.1245 41.3441 46.7249 41.3424H6.05819ZM26.3915 23.5508L6.05819 10.8424V36.2591H46.7249V10.8424L26.3915 23.5508ZM26.3915 18.4674L46.7249 5.75911H6.05819L26.3915 18.4674ZM6.05819 10.8424V5.75911V36.2591V10.8424Z" fill="url(#paint0_linear_824_324)"/>
<defs>
<linearGradient id="paint0_linear_824_324" x1="0.974854" y1="21.0091" x2="51.8082" y2="21.0091" gradientUnits="userSpaceOnUse">
<stop stop-color="#F28900"/>
</linearGradient>
</defs>
</svg>
